<svg xmlns="http://www.w3.org/2000/svg" xmlns:xlink="http://www.w3.org/1999/xlink" width="1200" zoomAndPan="magnify" viewBox="0 0 900 540.000001" height="720" preserveAspectRatio="xMidYMid meet" version="1.0"><defs><g/></defs><g fill="#520d0d" fill-opacity="1"><g transform="translate(13.227292, 167.048394)"><g><path d="M 5.6875 -69.90625 L 40.140625 -69.90625 C 47.929688 -69.90625 54.804688 -68.488281 60.765625 -65.65625 C 66.722656 -62.820312 71.347656 -58.773438 74.640625 -53.515625 C 77.941406 -48.265625 79.59375 -42.078125 79.59375 -34.953125 C 79.59375 -27.828125 77.941406 -21.632812 74.640625 -16.375 C 71.347656 -11.113281 66.722656 -7.066406 60.765625 -4.234375 C 54.804688 -1.410156 47.929688 0 40.140625 0 L 5.6875 0 Z M 39.140625 -18.375 C 44.203125 -18.375 48.25 -19.820312 51.28125 -22.71875 C 54.3125 -25.613281 55.828125 -29.691406 55.828125 -34.953125 C 55.828125 -40.210938 54.3125 -44.289062 51.28125 -47.1875 C 48.25 -50.082031 44.203125 -51.53125 39.140625 -51.53125 L 29.265625 -51.53125 L 29.265625 -18.375 Z M 39.140625 -18.375 "/></g></g></g><g fill="#520d0d" fill-opacity="1"><g transform="translate(95.699488, 167.048394)"><g><path d="M 5 -54.625 L 27.5625 -54.625 L 27.5625 0 L 5 0 Z M 16.28125 -59.015625 C 12.21875 -59.015625 8.9375 -60.097656 6.4375 -62.265625 C 3.945312 -64.429688 2.703125 -67.175781 2.703125 -70.5 C 2.703125 -73.832031 3.945312 -76.578125 6.4375 -78.734375 C 8.9375 -80.898438 12.21875 -81.984375 16.28125 -81.984375 C 20.40625 -81.984375 23.695312 -80.953125 26.15625 -78.890625 C 28.625 -76.828125 29.859375 -74.164062 29.859375 -70.90625 C 29.859375 -67.4375 28.625 -64.585938 26.15625 -62.359375 C 23.695312 -60.128906 20.40625 -59.015625 16.28125 -59.015625 Z M 16.28125 -59.015625 "/></g></g></g><g fill="#520d0d" fill-opacity="1"><g transform="translate(128.249043, 167.048394)"><g><path d="M 66 -54.625 L 66 -10.890625 C 66 -0.503906 63.117188 7.300781 57.359375 12.53125 C 51.609375 17.757812 43.40625 20.375 32.75 20.375 C 27.289062 20.375 22.195312 19.789062 17.46875 18.625 C 12.75 17.457031 8.722656 15.773438 5.390625 13.578125 L 12.984375 -1.796875 C 15.109375 -0.203125 17.800781 1.09375 21.0625 2.09375 C 24.332031 3.09375 27.460938 3.59375 30.453125 3.59375 C 34.984375 3.59375 38.28125 2.625 40.34375 0.6875 C 42.40625 -1.238281 43.4375 -4.0625 43.4375 -7.78125 L 43.4375 -8.78125 C 40.039062 -4.925781 35.015625 -3 28.359375 -3 C 23.703125 -3 19.359375 -4.078125 15.328125 -6.234375 C 11.296875 -8.398438 8.082031 -11.492188 5.6875 -15.515625 C 3.289062 -19.546875 2.09375 -24.160156 2.09375 -29.359375 C 2.09375 -34.546875 3.289062 -39.132812 5.6875 -43.125 C 8.082031 -47.125 11.296875 -50.207031 15.328125 -52.375 C 19.359375 -54.539062 23.703125 -55.625 28.359375 -55.625 C 35.816406 -55.625 41.207031 -53.226562 44.53125 -48.4375 L 44.53125 -54.625 Z M 34.359375 -20.578125 C 37.015625 -20.578125 39.222656 -21.390625 40.984375 -23.015625 C 42.753906 -24.648438 43.640625 -26.765625 43.640625 -29.359375 C 43.640625 -31.953125 42.753906 -34.046875 40.984375 -35.640625 C 39.222656 -37.242188 37.015625 -38.046875 34.359375 -38.046875 C 31.617188 -38.046875 29.367188 -37.242188 27.609375 -35.640625 C 25.847656 -34.046875 24.96875 -31.953125 24.96875 -29.359375 C 24.96875 -26.765625 25.863281 -24.648438 27.65625 -23.015625 C 29.457031 -21.390625 31.691406 -20.578125 34.359375 -20.578125 Z M 34.359375 -20.578125 "/></g></g></g><g fill="#520d0d" fill-opacity="1"><g transform="translate(199.239043, 167.048394)"><g><path d="M 5 -54.625 L 27.5625 -54.625 L 27.5625 0 L 5 0 Z M 16.28125 -59.015625 C 12.21875 -59.015625 8.9375 -60.097656 6.4375 -62.265625 C 3.945312 -64.429688 2.703125 -67.175781 2.703125 -70.5 C 2.703125 -73.832031 3.945312 -76.578125 6.4375 -78.734375 C 8.9375 -80.898438 12.21875 -81.984375 16.28125 -81.984375 C 20.40625 -81.984375 23.695312 -80.953125 26.15625 -78.890625 C 28.625 -76.828125 29.859375 -74.164062 29.859375 -70.90625 C 29.859375 -67.4375 28.625 -64.585938 26.15625 -62.359375 C 23.695312 -60.128906 20.40625 -59.015625 16.28125 -59.015625 Z M 16.28125 -59.015625 "/></g></g></g><g fill="#520d0d" fill-opacity="1"><g transform="translate(231.788598, 167.048394)"><g><path d="M 45.234375 -1.890625 C 41.835938 0.0351562 37.210938 1 31.359375 1 C 23.703125 1 17.804688 -0.84375 13.671875 -4.53125 C 9.546875 -8.226562 7.484375 -13.773438 7.484375 -21.171875 L 7.484375 -35.15625 L 0 -35.15625 L 0 -51.625 L 7.484375 -51.625 L 7.484375 -66.90625 L 30.0625 -66.90625 L 30.0625 -51.625 L 41.234375 -51.625 L 41.234375 -35.15625 L 30.0625 -35.15625 L 30.0625 -21.375 C 30.0625 -19.707031 30.492188 -18.40625 31.359375 -17.46875 C 32.222656 -16.539062 33.351562 -16.078125 34.75 -16.078125 C 36.675781 -16.078125 38.375 -16.578125 39.84375 -17.578125 Z M 45.234375 -1.890625 "/></g></g></g><g fill="#520d0d" fill-opacity="1"><g transform="translate(277.717414, 167.048394)"><g><path d="M 29.453125 -55.625 C 39.046875 -55.625 46.367188 -53.472656 51.421875 -49.171875 C 56.484375 -44.878906 59.015625 -38.273438 59.015625 -29.359375 L 59.015625 0 L 38.046875 0 L 38.046875 -7.1875 C 35.453125 -1.726562 30.289062 1 22.5625 1 C 18.238281 1 14.5625 0.25 11.53125 -1.25 C 8.5 -2.75 6.203125 -4.78125 4.640625 -7.34375 C 3.078125 -9.90625 2.296875 -12.785156 2.296875 -15.984375 C 2.296875 -21.367188 4.359375 -25.457031 8.484375 -28.25 C 12.609375 -31.050781 18.867188 -32.453125 27.265625 -32.453125 L 36.34375 -32.453125 C 35.613281 -36.710938 32.1875 -38.84375 26.0625 -38.84375 C 23.601562 -38.84375 21.109375 -38.457031 18.578125 -37.6875 C 16.046875 -36.925781 13.878906 -35.878906 12.078125 -34.546875 L 4.890625 -49.4375 C 8.023438 -51.363281 11.804688 -52.875 16.234375 -53.96875 C 20.660156 -55.070312 25.066406 -55.625 29.453125 -55.625 Z M 29.359375 -12.578125 C 30.953125 -12.578125 32.378906 -13.007812 33.640625 -13.875 C 34.910156 -14.738281 35.847656 -16.039062 36.453125 -17.78125 L 36.453125 -21.5625 L 30.859375 -21.5625 C 26.265625 -21.5625 23.96875 -20.03125 23.96875 -16.96875 C 23.96875 -15.707031 24.445312 -14.660156 25.40625 -13.828125 C 26.375 -12.992188 27.691406 -12.578125 29.359375 -12.578125 Z M 29.359375 -12.578125 "/></g></g></g><g fill="#520d0d" fill-opacity="1"><g transform="translate(341.518525, 167.048394)"><g><path d="M 5 -74.09375 L 27.5625 -74.09375 L 27.5625 0 L 5 0 Z M 5 -74.09375 "/></g></g></g><g fill="#520d0d" fill-opacity="1"><g transform="translate(374.068079, 167.048394)"><g/></g></g><g fill="#520d0d" fill-opacity="1"><g transform="translate(404.021671, 167.048394)"><g><path d="M 5.6875 -69.90625 L 29.265625 -69.90625 L 29.265625 -18.28125 L 60.8125 -18.28125 L 60.8125 0 L 5.6875 0 Z M 5.6875 -69.90625 "/></g></g></g><g fill="#520d0d" fill-opacity="1"><g transform="translate(465.626198, 167.048394)"><g><path d="M 63.109375 -27.359375 C 63.109375 -27.023438 63.007812 -25.257812 62.8125 -22.0625 L 24.859375 -22.0625 C 25.660156 -20 26.992188 -18.414062 28.859375 -17.3125 C 30.722656 -16.21875 33.050781 -15.671875 35.84375 -15.671875 C 38.238281 -15.671875 40.253906 -15.96875 41.890625 -16.5625 C 43.523438 -17.164062 45.304688 -18.203125 47.234375 -19.671875 L 59.015625 -7.78125 C 53.691406 -1.925781 45.738281 1 35.15625 1 C 28.5625 1 22.765625 -0.210938 17.765625 -2.640625 C 12.773438 -5.078125 8.914062 -8.457031 6.1875 -12.78125 C 3.457031 -17.101562 2.09375 -21.960938 2.09375 -27.359375 C 2.09375 -32.816406 3.441406 -37.691406 6.140625 -41.984375 C 8.835938 -46.285156 12.53125 -49.632812 17.21875 -52.03125 C 21.914062 -54.425781 27.191406 -55.625 33.046875 -55.625 C 38.578125 -55.625 43.617188 -54.523438 48.171875 -52.328125 C 52.734375 -50.128906 56.363281 -46.898438 59.0625 -42.640625 C 61.757812 -38.378906 63.109375 -33.285156 63.109375 -27.359375 Z M 33.25 -40.25 C 30.925781 -40.25 29 -39.613281 27.46875 -38.34375 C 25.9375 -37.082031 24.9375 -35.285156 24.46875 -32.953125 L 42.046875 -32.953125 C 41.578125 -35.210938 40.578125 -36.992188 39.046875 -38.296875 C 37.515625 -39.597656 35.582031 -40.25 33.25 -40.25 Z M 33.25 -40.25 "/></g></g></g><g fill="#520d0d" fill-opacity="1"><g transform="translate(530.825169, 167.048394)"><g><path d="M 29.453125 -55.625 C 39.046875 -55.625 46.367188 -53.472656 51.421875 -49.171875 C 56.484375 -44.878906 59.015625 -38.273438 59.015625 -29.359375 L 59.015625 0 L 38.046875 0 L 38.046875 -7.1875 C 35.453125 -1.726562 30.289062 1 22.5625 1 C 18.238281 1 14.5625 0.25 11.53125 -1.25 C 8.5 -2.75 6.203125 -4.78125 4.640625 -7.34375 C 3.078125 -9.90625 2.296875 -12.785156 2.296875 -15.984375 C 2.296875 -21.367188 4.359375 -25.457031 8.484375 -28.25 C 12.609375 -31.050781 18.867188 -32.453125 27.265625 -32.453125 L 36.34375 -32.453125 C 35.613281 -36.710938 32.1875 -38.84375 26.0625 -38.84375 C 23.601562 -38.84375 21.109375 -38.457031 18.578125 -37.6875 C 16.046875 -36.925781 13.878906 -35.878906 12.078125 -34.546875 L 4.890625 -49.4375 C 8.023438 -51.363281 11.804688 -52.875 16.234375 -53.96875 C 20.660156 -55.070312 25.066406 -55.625 29.453125 -55.625 Z M 29.359375 -12.578125 C 30.953125 -12.578125 32.378906 -13.007812 33.640625 -13.875 C 34.910156 -14.738281 35.847656 -16.039062 36.453125 -17.78125 L 36.453125 -21.5625 L 30.859375 -21.5625 C 26.265625 -21.5625 23.96875 -20.03125 23.96875 -16.96875 C 23.96875 -15.707031 24.445312 -14.660156 25.40625 -13.828125 C 26.375 -12.992188 27.691406 -12.578125 29.359375 -12.578125 Z M 29.359375 -12.578125 "/></g></g></g><g fill="#520d0d" fill-opacity="1"><g transform="translate(594.62628, 167.048394)"><g><path d="M 26.46875 -48.734375 C 30.457031 -53.328125 36.347656 -55.625 44.140625 -55.625 L 44.140625 -35.65625 C 42.335938 -35.914062 40.671875 -36.046875 39.140625 -36.046875 C 31.421875 -36.046875 27.5625 -32.117188 27.5625 -24.265625 L 27.5625 0 L 5 0 L 5 -54.625 L 26.46875 -54.625 Z M 26.46875 -48.734375 "/></g></g></g><g fill="#520d0d" fill-opacity="1"><g transform="translate(640.155719, 167.048394)"><g><path d="M 42.9375 -55.625 C 49.664062 -55.625 55.078125 -53.59375 59.171875 -49.53125 C 63.265625 -45.46875 65.3125 -39.34375 65.3125 -31.15625 L 65.3125 0 L 42.734375 0 L 42.734375 -27.265625 C 42.734375 -33.515625 40.503906 -36.640625 36.046875 -36.640625 C 33.515625 -36.640625 31.46875 -35.757812 29.90625 -34 C 28.34375 -32.238281 27.5625 -29.457031 27.5625 -25.65625 L 27.5625 0 L 5 0 L 5 -54.625 L 26.46875 -54.625 L 26.46875 -49.234375 C 28.59375 -51.359375 31.050781 -52.953125 33.84375 -54.015625 C 36.644531 -55.085938 39.675781 -55.625 42.9375 -55.625 Z M 42.9375 -55.625 "/></g></g></g><g fill="#520d0d" fill-opacity="1"><g transform="translate(710.2471, 167.048394)"><g><path d="M 5 -54.625 L 27.5625 -54.625 L 27.5625 0 L 5 0 Z M 16.28125 -59.015625 C 12.21875 -59.015625 8.9375 -60.097656 6.4375 -62.265625 C 3.945312 -64.429688 2.703125 -67.175781 2.703125 -70.5 C 2.703125 -73.832031 3.945312 -76.578125 6.4375 -78.734375 C 8.9375 -80.898438 12.21875 -81.984375 16.28125 -81.984375 C 20.40625 -81.984375 23.695312 -80.953125 26.15625 -78.890625 C 28.625 -76.828125 29.859375 -74.164062 29.859375 -70.90625 C 29.859375 -67.4375 28.625 -64.585938 26.15625 -62.359375 C 23.695312 -60.128906 20.40625 -59.015625 16.28125 -59.015625 Z M 16.28125 -59.015625 "/></g></g></g><g fill="#520d0d" fill-opacity="1"><g transform="translate(742.796654, 167.048394)"><g><path d="M 42.9375 -55.625 C 49.664062 -55.625 55.078125 -53.59375 59.171875 -49.53125 C 63.265625 -45.46875 65.3125 -39.34375 65.3125 -31.15625 L 65.3125 0 L 42.734375 0 L 42.734375 -27.265625 C 42.734375 -33.515625 40.503906 -36.640625 36.046875 -36.640625 C 33.515625 -36.640625 31.46875 -35.757812 29.90625 -34 C 28.34375 -32.238281 27.5625 -29.457031 27.5625 -25.65625 L 27.5625 0 L 5 0 L 5 -54.625 L 26.46875 -54.625 L 26.46875 -49.234375 C 28.59375 -51.359375 31.050781 -52.953125 33.84375 -54.015625 C 36.644531 -55.085938 39.675781 -55.625 42.9375 -55.625 Z M 42.9375 -55.625 "/></g></g></g><g fill="#520d0d" fill-opacity="1"><g transform="translate(812.888034, 167.048394)"><g><path d="M 66 -54.625 L 66 -10.890625 C 66 -0.503906 63.117188 7.300781 57.359375 12.53125 C 51.609375 17.757812 43.40625 20.375 32.75 20.375 C 27.289062 20.375 22.195312 19.789062 17.46875 18.625 C 12.75 17.457031 8.722656 15.773438 5.390625 13.578125 L 12.984375 -1.796875 C 15.109375 -0.203125 17.800781 1.09375 21.0625 2.09375 C 24.332031 3.09375 27.460938 3.59375 30.453125 3.59375 C 34.984375 3.59375 38.28125 2.625 40.34375 0.6875 C 42.40625 -1.238281 43.4375 -4.0625 43.4375 -7.78125 L 43.4375 -8.78125 C 40.039062 -4.925781 35.015625 -3 28.359375 -3 C 23.703125 -3 19.359375 -4.078125 15.328125 -6.234375 C 11.296875 -8.398438 8.082031 -11.492188 5.6875 -15.515625 C 3.289062 -19.546875 2.09375 -24.160156 2.09375 -29.359375 C 2.09375 -34.546875 3.289062 -39.132812 5.6875 -43.125 C 8.082031 -47.125 11.296875 -50.207031 15.328125 -52.375 C 19.359375 -54.539062 23.703125 -55.625 28.359375 -55.625 C 35.816406 -55.625 41.207031 -53.226562 44.53125 -48.4375 L 44.53125 -54.625 Z M 34.359375 -20.578125 C 37.015625 -20.578125 39.222656 -21.390625 40.984375 -23.015625 C 42.753906 -24.648438 43.640625 -26.765625 43.640625 -29.359375 C 43.640625 -31.953125 42.753906 -34.046875 40.984375 -35.640625 C 39.222656 -37.242188 37.015625 -38.046875 34.359375 -38.046875 C 31.617188 -38.046875 29.367188 -37.242188 27.609375 -35.640625 C 25.847656 -34.046875 24.96875 -31.953125 24.96875 -29.359375 C 24.96875 -26.765625 25.863281 -24.648438 27.65625 -23.015625 C 29.457031 -21.390625 31.691406 -20.578125 34.359375 -20.578125 Z M 34.359375 -20.578125 "/></g></g></g><g fill="#520d0d" fill-opacity="1"><g transform="translate(13.227292, 305.149613)"><g><path d="M 29.453125 -55.625 C 39.046875 -55.625 46.367188 -53.472656 51.421875 -49.171875 C 56.484375 -44.878906 59.015625 -38.273438 59.015625 -29.359375 L 59.015625 0 L 38.046875 0 L 38.046875 -7.1875 C 35.453125 -1.726562 30.289062 1 22.5625 1 C 18.238281 1 14.5625 0.25 11.53125 -1.25 C 8.5 -2.75 6.203125 -4.78125 4.640625 -7.34375 C 3.078125 -9.90625 2.296875 -12.785156 2.296875 -15.984375 C 2.296875 -21.367188 4.359375 -25.457031 8.484375 -28.25 C 12.609375 -31.050781 18.867188 -32.453125 27.265625 -32.453125 L 36.34375 -32.453125 C 35.613281 -36.710938 32.1875 -38.84375 26.0625 -38.84375 C 23.601562 -38.84375 21.109375 -38.457031 18.578125 -37.6875 C 16.046875 -36.925781 13.878906 -35.878906 12.078125 -34.546875 L 4.890625 -49.4375 C 8.023438 -51.363281 11.804688 -52.875 16.234375 -53.96875 C 20.660156 -55.070312 25.066406 -55.625 29.453125 -55.625 Z M 29.359375 -12.578125 C 30.953125 -12.578125 32.378906 -13.007812 33.640625 -13.875 C 34.910156 -14.738281 35.847656 -16.039062 36.453125 -17.78125 L 36.453125 -21.5625 L 30.859375 -21.5625 C 26.265625 -21.5625 23.96875 -20.03125 23.96875 -16.96875 C 23.96875 -15.707031 24.445312 -14.660156 25.40625 -13.828125 C 26.375 -12.992188 27.691406 -12.578125 29.359375 -12.578125 Z M 29.359375 -12.578125 "/></g></g></g><g fill="#520d0d" fill-opacity="1"><g transform="translate(77.028402, 305.149613)"><g><path d="M 42.9375 -55.625 C 49.664062 -55.625 55.078125 -53.59375 59.171875 -49.53125 C 63.265625 -45.46875 65.3125 -39.34375 65.3125 -31.15625 L 65.3125 0 L 42.734375 0 L 42.734375 -27.265625 C 42.734375 -33.515625 40.503906 -36.640625 36.046875 -36.640625 C 33.515625 -36.640625 31.46875 -35.757812 29.90625 -34 C 28.34375 -32.238281 27.5625 -29.457031 27.5625 -25.65625 L 27.5625 0 L 5 0 L 5 -54.625 L 26.46875 -54.625 L 26.46875 -49.234375 C 28.59375 -51.359375 31.050781 -52.953125 33.84375 -54.015625 C 36.644531 -55.085938 39.675781 -55.625 42.9375 -55.625 Z M 42.9375 -55.625 "/></g></g></g><g fill="#520d0d" fill-opacity="1"><g transform="translate(147.119783, 305.149613)"><g><path d="M 65.40625 -74.09375 L 65.40625 0 L 43.9375 0 L 43.9375 -4.5 C 40.675781 -0.832031 35.679688 1 28.953125 1 C 24.160156 1 19.75 -0.144531 15.71875 -2.4375 C 11.695312 -4.738281 8.503906 -8.050781 6.140625 -12.375 C 3.773438 -16.707031 2.59375 -21.703125 2.59375 -27.359375 C 2.59375 -33.015625 3.773438 -37.988281 6.140625 -42.28125 C 8.503906 -46.582031 11.695312 -49.878906 15.71875 -52.171875 C 19.75 -54.472656 24.160156 -55.625 28.953125 -55.625 C 35.015625 -55.625 39.644531 -54.054688 42.84375 -50.921875 L 42.84375 -74.09375 Z M 34.359375 -16.578125 C 36.953125 -16.578125 39.078125 -17.523438 40.734375 -19.421875 C 42.398438 -21.316406 43.234375 -23.960938 43.234375 -27.359375 C 43.234375 -30.753906 42.398438 -33.382812 40.734375 -35.25 C 39.078125 -37.113281 36.953125 -38.046875 34.359375 -38.046875 C 31.753906 -38.046875 29.617188 -37.113281 27.953125 -35.25 C 26.296875 -33.382812 25.46875 -30.753906 25.46875 -27.359375 C 25.46875 -23.960938 26.296875 -21.316406 27.953125 -19.421875 C 29.617188 -17.523438 31.753906 -16.578125 34.359375 -16.578125 Z M 34.359375 -16.578125 "/></g></g></g><g fill="#520d0d" fill-opacity="1"><g transform="translate(217.510716, 305.149613)"><g/></g></g><g fill="#520d0d" fill-opacity="1"><g transform="translate(247.464308, 305.149613)"><g><path d="M 31.75 1.59375 C 25.957031 1.59375 20.316406 0.945312 14.828125 -0.34375 C 9.335938 -1.644531 4.828125 -3.394531 1.296875 -5.59375 L 8.890625 -22.765625 C 12.210938 -20.835938 15.9375 -19.289062 20.0625 -18.125 C 24.195312 -16.957031 28.160156 -16.375 31.953125 -16.375 C 35.210938 -16.375 37.539062 -16.691406 38.9375 -17.328125 C 40.34375 -17.960938 41.046875 -18.910156 41.046875 -20.171875 C 41.046875 -21.640625 40.128906 -22.738281 38.296875 -23.46875 C 36.460938 -24.195312 33.453125 -24.992188 29.265625 -25.859375 C 23.867188 -26.992188 19.375 -28.207031 15.78125 -29.5 C 12.1875 -30.800781 9.054688 -32.929688 6.390625 -35.890625 C 3.722656 -38.859375 2.390625 -42.875 2.390625 -47.9375 C 2.390625 -52.320312 3.617188 -56.3125 6.078125 -59.90625 C 8.546875 -63.507812 12.226562 -66.34375 17.125 -68.40625 C 22.019531 -70.46875 27.960938 -71.5 34.953125 -71.5 C 39.742188 -71.5 44.453125 -70.984375 49.078125 -69.953125 C 53.703125 -68.921875 57.78125 -67.40625 61.3125 -65.40625 L 54.21875 -48.328125 C 47.363281 -51.796875 40.875 -53.53125 34.75 -53.53125 C 28.6875 -53.53125 25.65625 -52.0625 25.65625 -49.125 C 25.65625 -47.726562 26.554688 -46.679688 28.359375 -45.984375 C 30.160156 -45.285156 33.125 -44.535156 37.25 -43.734375 C 42.570312 -42.734375 47.0625 -41.582031 50.71875 -40.28125 C 54.382812 -38.988281 57.566406 -36.878906 60.265625 -33.953125 C 62.960938 -31.023438 64.3125 -27.03125 64.3125 -21.96875 C 64.3125 -17.570312 63.078125 -13.59375 60.609375 -10.03125 C 58.148438 -6.46875 54.472656 -3.640625 49.578125 -1.546875 C 44.679688 0.546875 38.738281 1.59375 31.75 1.59375 Z M 31.75 1.59375 "/></g></g></g><g fill="#520d0d" fill-opacity="1"><g transform="translate(313.062659, 305.149613)"><g><path d="M 34.359375 1 C 28.160156 1 22.613281 -0.195312 17.71875 -2.59375 C 12.832031 -4.988281 9.003906 -8.347656 6.234375 -12.671875 C 3.472656 -17.003906 2.09375 -21.898438 2.09375 -27.359375 C 2.09375 -32.816406 3.472656 -37.691406 6.234375 -41.984375 C 9.003906 -46.285156 12.832031 -49.632812 17.71875 -52.03125 C 22.613281 -54.425781 28.160156 -55.625 34.359375 -55.625 C 41.015625 -55.625 46.703125 -54.191406 51.421875 -51.328125 C 56.148438 -48.460938 59.414062 -44.5 61.21875 -39.4375 L 43.734375 -30.859375 C 41.609375 -35.648438 38.445312 -38.046875 34.25 -38.046875 C 31.582031 -38.046875 29.367188 -37.113281 27.609375 -35.25 C 25.847656 -33.382812 24.96875 -30.753906 24.96875 -27.359375 C 24.96875 -23.898438 25.847656 -21.238281 27.609375 -19.375 C 29.367188 -17.507812 31.582031 -16.578125 34.25 -16.578125 C 38.445312 -16.578125 41.609375 -18.972656 43.734375 -23.765625 L 61.21875 -15.171875 C 59.414062 -10.117188 56.148438 -6.160156 51.421875 -3.296875 C 46.703125 -0.429688 41.015625 1 34.359375 1 Z M 34.359375 1 "/></g></g></g><g fill="#520d0d" fill-opacity="1"><g transform="translate(374.467496, 305.149613)"><g><path d="M 42.9375 -55.625 C 49.664062 -55.625 55.078125 -53.59375 59.171875 -49.53125 C 63.265625 -45.46875 65.3125 -39.34375 65.3125 -31.15625 L 65.3125 0 L 42.734375 0 L 42.734375 -27.265625 C 42.734375 -33.515625 40.503906 -36.640625 36.046875 -36.640625 C 33.515625 -36.640625 31.46875 -35.757812 29.90625 -34 C 28.34375 -32.238281 27.5625 -29.457031 27.5625 -25.65625 L 27.5625 0 L 5 0 L 5 -74.09375 L 27.5625 -74.09375 L 27.5625 -50.234375 C 31.757812 -53.828125 36.882812 -55.625 42.9375 -55.625 Z M 42.9375 -55.625 "/></g></g></g><g fill="#520d0d" fill-opacity="1"><g transform="translate(444.558876, 305.149613)"><g><path d="M 33.859375 1 C 27.796875 1 22.347656 -0.210938 17.515625 -2.640625 C 12.691406 -5.078125 8.914062 -8.441406 6.1875 -12.734375 C 3.457031 -17.023438 2.09375 -21.898438 2.09375 -27.359375 C 2.09375 -32.816406 3.457031 -37.691406 6.1875 -41.984375 C 8.914062 -46.285156 12.691406 -49.632812 17.515625 -52.03125 C 22.347656 -54.425781 27.796875 -55.625 33.859375 -55.625 C 39.984375 -55.625 45.457031 -54.425781 50.28125 -52.03125 C 55.101562 -49.632812 58.863281 -46.285156 61.5625 -41.984375 C 64.257812 -37.691406 65.609375 -32.816406 65.609375 -27.359375 C 65.609375 -21.898438 64.257812 -17.023438 61.5625 -12.734375 C 58.863281 -8.441406 55.101562 -5.078125 50.28125 -2.640625 C 45.457031 -0.210938 39.984375 1 33.859375 1 Z M 33.859375 -16.578125 C 36.453125 -16.578125 38.578125 -17.523438 40.234375 -19.421875 C 41.898438 -21.316406 42.734375 -23.960938 42.734375 -27.359375 C 42.734375 -30.753906 41.898438 -33.382812 40.234375 -35.25 C 38.578125 -37.113281 36.453125 -38.046875 33.859375 -38.046875 C 31.253906 -38.046875 29.117188 -37.113281 27.453125 -35.25 C 25.796875 -33.382812 24.96875 -30.753906 24.96875 -27.359375 C 24.96875 -23.960938 25.796875 -21.316406 27.453125 -19.421875 C 29.117188 -17.523438 31.253906 -16.578125 33.859375 -16.578125 Z M 33.859375 -16.578125 "/></g></g></g><g fill="#520d0d" fill-opacity="1"><g transform="translate(512.253982, 305.149613)"><g><path d="M 5 -74.09375 L 27.5625 -74.09375 L 27.5625 0 L 5 0 Z M 5 -74.09375 "/></g></g></g><g fill="#520d0d" fill-opacity="1"><g transform="translate(544.803537, 305.149613)"><g><path d="M 29.453125 -55.625 C 39.046875 -55.625 46.367188 -53.472656 51.421875 -49.171875 C 56.484375 -44.878906 59.015625 -38.273438 59.015625 -29.359375 L 59.015625 0 L 38.046875 0 L 38.046875 -7.1875 C 35.453125 -1.726562 30.289062 1 22.5625 1 C 18.238281 1 14.5625 0.25 11.53125 -1.25 C 8.5 -2.75 6.203125 -4.78125 4.640625 -7.34375 C 3.078125 -9.90625 2.296875 -12.785156 2.296875 -15.984375 C 2.296875 -21.367188 4.359375 -25.457031 8.484375 -28.25 C 12.609375 -31.050781 18.867188 -32.453125 27.265625 -32.453125 L 36.34375 -32.453125 C 35.613281 -36.710938 32.1875 -38.84375 26.0625 -38.84375 C 23.601562 -38.84375 21.109375 -38.457031 18.578125 -37.6875 C 16.046875 -36.925781 13.878906 -35.878906 12.078125 -34.546875 L 4.890625 -49.4375 C 8.023438 -51.363281 11.804688 -52.875 16.234375 -53.96875 C 20.660156 -55.070312 25.066406 -55.625 29.453125 -55.625 Z M 29.359375 -12.578125 C 30.953125 -12.578125 32.378906 -13.007812 33.640625 -13.875 C 34.910156 -14.738281 35.847656 -16.039062 36.453125 -17.78125 L 36.453125 -21.5625 L 30.859375 -21.5625 C 26.265625 -21.5625 23.96875 -20.03125 23.96875 -16.96875 C 23.96875 -15.707031 24.445312 -14.660156 25.40625 -13.828125 C 26.375 -12.992188 27.691406 -12.578125 29.359375 -12.578125 Z M 29.359375 -12.578125 "/></g></g></g><g fill="#520d0d" fill-opacity="1"><g transform="translate(608.604648, 305.149613)"><g><path d="M 26.46875 -48.734375 C 30.457031 -53.328125 36.347656 -55.625 44.140625 -55.625 L 44.140625 -35.65625 C 42.335938 -35.914062 40.671875 -36.046875 39.140625 -36.046875 C 31.421875 -36.046875 27.5625 -32.117188 27.5625 -24.265625 L 27.5625 0 L 5 0 L 5 -54.625 L 26.46875 -54.625 Z M 26.46875 -48.734375 "/></g></g></g><g fill="#520d0d" fill-opacity="1"><g transform="translate(654.134122, 305.149613)"><g><path d="M 26.359375 1 C 21.703125 1 17.109375 0.5 12.578125 -0.5 C 8.054688 -1.5 4.394531 -2.796875 1.59375 -4.390625 L 7.78125 -19.265625 C 10.3125 -17.734375 13.304688 -16.535156 16.765625 -15.671875 C 20.234375 -14.804688 23.597656 -14.375 26.859375 -14.375 C 29.453125 -14.375 31.265625 -14.585938 32.296875 -15.015625 C 33.335938 -15.453125 33.859375 -16.101562 33.859375 -16.96875 C 33.859375 -17.84375 33.207031 -18.441406 31.90625 -18.765625 C 30.601562 -19.097656 28.488281 -19.429688 25.5625 -19.765625 C 21.101562 -20.304688 17.304688 -20.988281 14.171875 -21.8125 C 11.046875 -22.644531 8.300781 -24.257812 5.9375 -26.65625 C 3.570312 -29.050781 2.390625 -32.484375 2.390625 -36.953125 C 2.390625 -40.472656 3.453125 -43.628906 5.578125 -46.421875 C 7.710938 -49.222656 10.894531 -51.457031 15.125 -53.125 C 19.351562 -54.789062 24.429688 -55.625 30.359375 -55.625 C 34.484375 -55.625 38.523438 -55.238281 42.484375 -54.46875 C 46.453125 -53.707031 49.832031 -52.59375 52.625 -51.125 L 46.4375 -36.25 C 41.644531 -38.914062 36.382812 -40.25 30.65625 -40.25 C 25.726562 -40.25 23.265625 -39.378906 23.265625 -37.640625 C 23.265625 -36.773438 23.929688 -36.160156 25.265625 -35.796875 C 26.597656 -35.429688 28.695312 -35.082031 31.5625 -34.75 C 36.019531 -34.21875 39.796875 -33.519531 42.890625 -32.65625 C 45.984375 -31.789062 48.710938 -30.160156 51.078125 -27.765625 C 53.441406 -25.367188 54.625 -21.9375 54.625 -17.46875 C 54.625 -14.070312 53.554688 -10.976562 51.421875 -8.1875 C 49.296875 -5.394531 46.101562 -3.164062 41.84375 -1.5 C 37.582031 0.164062 32.421875 1 26.359375 1 Z M 26.359375 1 "/></g></g></g><g fill="#520d0d" fill-opacity="1"><g transform="translate(710.546689, 305.149613)"><g><path d="M 42.9375 -55.625 C 49.664062 -55.625 55.078125 -53.59375 59.171875 -49.53125 C 63.265625 -45.46875 65.3125 -39.34375 65.3125 -31.15625 L 65.3125 0 L 42.734375 0 L 42.734375 -27.265625 C 42.734375 -33.515625 40.503906 -36.640625 36.046875 -36.640625 C 33.515625 -36.640625 31.46875 -35.757812 29.90625 -34 C 28.34375 -32.238281 27.5625 -29.457031 27.5625 -25.65625 L 27.5625 0 L 5 0 L 5 -74.09375 L 27.5625 -74.09375 L 27.5625 -50.234375 C 31.757812 -53.828125 36.882812 -55.625 42.9375 -55.625 Z M 42.9375 -55.625 "/></g></g></g><g fill="#520d0d" fill-opacity="1"><g transform="translate(780.638069, 305.149613)"><g><path d="M 5 -54.625 L 27.5625 -54.625 L 27.5625 0 L 5 0 Z M 16.28125 -59.015625 C 12.21875 -59.015625 8.9375 -60.097656 6.4375 -62.265625 C 3.945312 -64.429688 2.703125 -67.175781 2.703125 -70.5 C 2.703125 -73.832031 3.945312 -76.578125 6.4375 -78.734375 C 8.9375 -80.898438 12.21875 -81.984375 16.28125 -81.984375 C 20.40625 -81.984375 23.695312 -80.953125 26.15625 -78.890625 C 28.625 -76.828125 29.859375 -74.164062 29.859375 -70.90625 C 29.859375 -67.4375 28.625 -64.585938 26.15625 -62.359375 C 23.695312 -60.128906 20.40625 -59.015625 16.28125 -59.015625 Z M 16.28125 -59.015625 "/></g></g></g><g fill="#520d0d" fill-opacity="1"><g transform="translate(813.187624, 305.149613)"><g><path d="M 41.4375 -55.625 C 46.226562 -55.625 50.640625 -54.472656 54.671875 -52.171875 C 58.703125 -49.878906 61.894531 -46.566406 64.25 -42.234375 C 66.613281 -37.910156 67.796875 -32.921875 67.796875 -27.265625 C 67.796875 -21.609375 66.613281 -16.628906 64.25 -12.328125 C 61.894531 -8.035156 58.703125 -4.738281 54.671875 -2.4375 C 50.640625 -0.144531 46.226562 1 41.4375 1 C 35.382812 1 30.757812 -0.5625 27.5625 -3.6875 L 27.5625 19.375 L 5 19.375 L 5 -54.625 L 26.46875 -54.625 L 26.46875 -50.125 C 29.726562 -53.789062 34.71875 -55.625 41.4375 -55.625 Z M 36.046875 -16.578125 C 38.640625 -16.578125 40.769531 -17.507812 42.4375 -19.375 C 44.101562 -21.238281 44.9375 -23.867188 44.9375 -27.265625 C 44.9375 -30.660156 44.101562 -33.304688 42.4375 -35.203125 C 40.769531 -37.097656 38.640625 -38.046875 36.046875 -38.046875 C 33.453125 -38.046875 31.320312 -37.097656 29.65625 -35.203125 C 27.988281 -33.304688 27.15625 -30.660156 27.15625 -27.265625 C 27.15625 -23.867188 27.988281 -21.238281 29.65625 -19.375 C 31.320312 -17.507812 33.453125 -16.578125 36.046875 -16.578125 Z M 36.046875 -16.578125 "/></g></g></g><g fill="#520d0d" fill-opacity="1"><g transform="translate(13.227292, 441.495211)"><g><path d="M 5.5 -3.296875 C 7.820312 -3.359375 9.484375 -3.890625 10.484375 -4.890625 C 11.484375 -5.890625 12.046875 -7.070312 12.171875 -8.4375 C 12.304688 -9.800781 12.375 -12.179688 12.375 -15.578125 L 12.375 -58.71875 C 12.375 -61.507812 12.476562 -63.90625 12.6875 -65.90625 L 5.5 -65.515625 L 5.5 -69.90625 C 14.8125 -70.03125 22.234375 -70.09375 27.765625 -70.09375 C 37.679688 -70.09375 45.1875 -68.363281 50.28125 -64.90625 C 55.375 -61.445312 57.921875 -56.351562 57.921875 -49.625 C 57.921875 -45.769531 56.90625 -42.078125 54.875 -38.546875 C 52.84375 -35.015625 49.347656 -32.082031 44.390625 -29.75 C 39.429688 -27.425781 32.859375 -26.265625 24.671875 -26.265625 C 23.140625 -26.265625 21.941406 -26.296875 21.078125 -26.359375 L 21.078125 -11.890625 C 21.078125 -8.359375 20.972656 -5.726562 20.765625 -4 L 29.953125 -4.5 L 29.953125 0 L 5.5 0 Z M 27.5625 -30.15625 C 31.351562 -30.15625 34.828125 -30.90625 37.984375 -32.40625 C 41.148438 -33.90625 43.648438 -36.066406 45.484375 -38.890625 C 47.316406 -41.722656 48.234375 -45.035156 48.234375 -48.828125 C 48.234375 -54.816406 46.398438 -59.207031 42.734375 -62 C 39.078125 -64.800781 34.019531 -66.203125 27.5625 -66.203125 C 25.300781 -66.203125 23.71875 -65.734375 22.8125 -64.796875 C 21.914062 -63.867188 21.398438 -62.753906 21.265625 -61.453125 C 21.140625 -60.160156 21.078125 -57.785156 21.078125 -54.328125 L 21.078125 -30.453125 C 22.734375 -30.253906 24.894531 -30.15625 27.5625 -30.15625 Z M 27.5625 -30.15625 "/></g></g></g><g fill="#520d0d" fill-opacity="1"><g transform="translate(77.236723, 441.495211)"><g><path d="M 4.390625 -3 C 6.328125 -3 7.707031 -3.476562 8.53125 -4.4375 C 9.363281 -5.40625 9.863281 -6.640625 10.03125 -8.140625 C 10.195312 -9.640625 10.28125 -11.984375 10.28125 -15.171875 L 10.28125 -37.953125 C 10.28125 -40.742188 10.414062 -42.90625 10.6875 -44.4375 L 3.59375 -44.140625 L 3.59375 -48.234375 L 6.6875 -48.234375 C 9.21875 -48.234375 11.046875 -48.445312 12.171875 -48.875 C 13.304688 -49.3125 14.375 -49.992188 15.375 -50.921875 L 18.28125 -50.921875 C 18.539062 -48.328125 18.707031 -45.035156 18.78125 -41.046875 C 20.4375 -43.773438 22.8125 -46.203125 25.90625 -48.328125 C 29.007812 -50.460938 32.222656 -51.53125 35.546875 -51.53125 C 37.546875 -51.53125 39.210938 -50.992188 40.546875 -49.921875 C 41.878906 -48.859375 42.546875 -47.296875 42.546875 -45.234375 C 42.546875 -44.171875 42.128906 -43.101562 41.296875 -42.03125 C 40.460938 -40.96875 39.28125 -40.4375 37.75 -40.4375 C 36.28125 -40.4375 35.078125 -40.984375 34.140625 -42.078125 C 33.210938 -43.179688 32.847656 -44.5 33.046875 -46.03125 C 30.523438 -46.101562 27.976562 -45.140625 25.40625 -43.140625 C 22.84375 -41.140625 20.664062 -38.476562 18.875 -35.15625 L 18.96875 -10.578125 C 18.96875 -7.585938 18.835938 -5.328125 18.578125 -3.796875 L 24.859375 -4.09375 L 24.859375 0 L 4.390625 0 Z M 4.390625 -3 "/></g></g></g><g fill="#520d0d" fill-opacity="1"><g transform="translate(123.970709, 441.495211)"><g><path d="M 29.15625 1.59375 C 24.5625 1.59375 20.347656 0.515625 16.515625 -1.640625 C 12.691406 -3.804688 9.664062 -6.820312 7.4375 -10.6875 C 5.207031 -14.550781 4.09375 -18.910156 4.09375 -23.765625 C 4.09375 -28.960938 5.191406 -33.671875 7.390625 -37.890625 C 9.585938 -42.117188 12.597656 -45.445312 16.421875 -47.875 C 20.253906 -50.3125 24.5 -51.53125 29.15625 -51.53125 C 33.75 -51.53125 37.976562 -50.414062 41.84375 -48.1875 C 45.707031 -45.957031 48.753906 -42.910156 50.984375 -39.046875 C 53.210938 -35.179688 54.328125 -30.882812 54.328125 -26.15625 C 54.328125 -21.101562 53.210938 -16.445312 50.984375 -12.1875 C 48.753906 -7.925781 45.722656 -4.5625 41.890625 -2.09375 C 38.066406 0.363281 33.820312 1.59375 29.15625 1.59375 Z M 29.953125 -2.390625 C 34.816406 -2.390625 38.394531 -4.382812 40.6875 -8.375 C 42.988281 -12.375 44.140625 -17.335938 44.140625 -23.265625 C 44.140625 -29.992188 42.890625 -35.753906 40.390625 -40.546875 C 37.890625 -45.335938 34.144531 -47.734375 29.15625 -47.734375 C 24.226562 -47.734375 20.515625 -45.703125 18.015625 -41.640625 C 15.523438 -37.578125 14.28125 -32.582031 14.28125 -26.65625 C 14.28125 -22.394531 14.863281 -18.414062 16.03125 -14.71875 C 17.195312 -11.03125 18.957031 -8.050781 21.3125 -5.78125 C 23.675781 -3.519531 26.554688 -2.390625 29.953125 -2.390625 Z M 29.953125 -2.390625 "/></g></g></g><g fill="#520d0d" fill-opacity="1"><g transform="translate(185.883123, 441.495211)"><g><path d="M 13.1875 -60.8125 C 11.78125 -60.8125 10.546875 -61.394531 9.484375 -62.5625 C 8.421875 -63.726562 7.890625 -65.109375 7.890625 -66.703125 C 7.890625 -68.304688 8.4375 -69.707031 9.53125 -70.90625 C 10.632812 -72.101562 11.882812 -72.703125 13.28125 -72.703125 C 14.8125 -72.703125 16.09375 -72.117188 17.125 -70.953125 C 18.15625 -69.785156 18.671875 -68.367188 18.671875 -66.703125 C 18.671875 -65.109375 18.117188 -63.726562 17.015625 -62.5625 C 15.921875 -61.394531 14.644531 -60.8125 13.1875 -60.8125 Z M -0.90625 27.0625 C -3.5 27.0625 -5.457031 26.523438 -6.78125 25.453125 C -8.113281 24.390625 -8.78125 23.0625 -8.78125 21.46875 C -8.78125 20.132812 -8.363281 19.019531 -7.53125 18.125 C -6.707031 17.226562 -5.628906 16.78125 -4.296875 16.78125 C -2.898438 16.78125 -1.847656 17.226562 -1.140625 18.125 C -0.441406 19.019531 -0.09375 19.96875 -0.09375 20.96875 C -0.09375 21.363281 -0.128906 21.664062 -0.203125 21.875 C 0.734375 22.269531 1.597656 22.46875 2.390625 22.46875 C 3.921875 22.46875 5.253906 21.898438 6.390625 20.765625 C 8.316406 18.898438 9.28125 14.84375 9.28125 8.59375 L 9.484375 -37.953125 C 9.484375 -40.472656 9.582031 -42.632812 9.78125 -44.4375 L 2.703125 -44.03125 L 2.703125 -48.234375 C 6.691406 -48.234375 9.535156 -48.460938 11.234375 -48.921875 C 12.929688 -49.390625 14.242188 -50.054688 15.171875 -50.921875 L 18.078125 -50.921875 L 18.078125 0.296875 C 18.078125 9.222656 16.34375 15.914062 12.875 20.375 C 9.414062 24.832031 4.820312 27.0625 -0.90625 27.0625 Z M -0.90625 27.0625 "/></g></g></g><g fill="#520d0d" fill-opacity="1"><g transform="translate(211.147623, 441.495211)"><g><path d="M 28.5625 1.59375 C 23.96875 1.59375 19.820312 0.515625 16.125 -1.640625 C 12.425781 -3.804688 9.507812 -6.898438 7.375 -10.921875 C 5.25 -14.953125 4.1875 -19.597656 4.1875 -24.859375 C 4.1875 -29.523438 5.25 -33.90625 7.375 -38 C 9.507812 -42.09375 12.488281 -45.367188 16.3125 -47.828125 C 20.144531 -50.296875 24.492188 -51.53125 29.359375 -51.53125 C 33.148438 -51.53125 36.578125 -50.695312 39.640625 -49.03125 C 42.703125 -47.363281 45.128906 -44.878906 46.921875 -41.578125 C 48.722656 -38.285156 49.625 -34.242188 49.625 -29.453125 L 14.484375 -28.859375 C 14.410156 -20.867188 15.722656 -14.644531 18.421875 -10.1875 C 21.117188 -5.726562 25.296875 -3.5 30.953125 -3.5 C 34.015625 -3.5 37.160156 -4.296875 40.390625 -5.890625 C 43.617188 -7.484375 46.097656 -9.445312 47.828125 -11.78125 L 50.234375 -9.78125 C 47.703125 -5.925781 44.421875 -3.066406 40.390625 -1.203125 C 36.367188 0.660156 32.425781 1.59375 28.5625 1.59375 Z M 40.25 -33.046875 C 40.25 -37.046875 39.347656 -40.476562 37.546875 -43.34375 C 35.742188 -46.207031 33.046875 -47.640625 29.453125 -47.640625 C 21.203125 -47.640625 16.3125 -42.773438 14.78125 -33.046875 Z M 40.25 -33.046875 "/></g></g></g><g fill="#520d0d" fill-opacity="1"><g transform="translate(268.766132, 441.495211)"><g><path d="M 28.765625 1.59375 C 24.234375 1.59375 20.085938 0.5625 16.328125 -1.5 C 12.566406 -3.5625 9.585938 -6.519531 7.390625 -10.375 C 5.191406 -14.238281 4.09375 -18.800781 4.09375 -24.0625 C 4.09375 -28.726562 5.207031 -33.171875 7.4375 -37.390625 C 9.664062 -41.617188 12.757812 -45.03125 16.71875 -47.625 C 20.6875 -50.226562 25.164062 -51.53125 30.15625 -51.53125 C 33.75 -51.53125 36.941406 -50.960938 39.734375 -49.828125 C 42.535156 -48.691406 44.71875 -47.191406 46.28125 -45.328125 C 47.84375 -43.472656 48.625 -41.445312 48.625 -39.25 C 48.625 -37.71875 48.191406 -36.453125 47.328125 -35.453125 C 46.460938 -34.453125 45.265625 -33.953125 43.734375 -33.953125 C 42.273438 -33.953125 41.175781 -34.429688 40.4375 -35.390625 C 39.707031 -36.359375 39.34375 -37.378906 39.34375 -38.453125 C 39.34375 -40.109375 39.84375 -41.4375 40.84375 -42.4375 C 40.113281 -44.5 38.695312 -45.910156 36.59375 -46.671875 C 34.5 -47.441406 32.421875 -47.828125 30.359375 -47.828125 C 27.296875 -47.828125 24.546875 -46.992188 22.109375 -45.328125 C 19.679688 -43.671875 17.769531 -41.242188 16.375 -38.046875 C 14.976562 -34.847656 14.28125 -31.019531 14.28125 -26.5625 C 14.28125 -22.101562 14.992188 -18.140625 16.421875 -14.671875 C 17.859375 -11.210938 19.875 -8.5 22.46875 -6.53125 C 25.0625 -4.570312 28.054688 -3.59375 31.453125 -3.59375 C 34.453125 -3.59375 37.398438 -4.40625 40.296875 -6.03125 C 43.191406 -7.664062 45.472656 -9.71875 47.140625 -12.1875 L 49.734375 -10.1875 C 47.265625 -6.320312 44.082031 -3.390625 40.1875 -1.390625 C 36.300781 0.597656 32.492188 1.59375 28.765625 1.59375 Z M 28.765625 1.59375 "/></g></g></g><g fill="#520d0d" fill-opacity="1"><g transform="translate(325.38607, 441.495211)"><g><path d="M 23.171875 1.59375 C 14.046875 1.59375 9.519531 -4.53125 9.59375 -16.78125 L 9.78125 -45.734375 L 2.09375 -45.640625 L 2.09375 -49.9375 C 5.289062 -50 8.003906 -51.441406 10.234375 -54.265625 C 12.460938 -57.097656 14.109375 -60.3125 15.171875 -63.90625 L 18.578125 -63.90625 L 18.578125 -49.9375 L 35.34375 -49.9375 L 35.34375 -46.03125 L 18.578125 -45.828125 C 18.503906 -35.648438 18.453125 -28.597656 18.421875 -24.671875 C 18.390625 -20.742188 18.375 -18.546875 18.375 -18.078125 C 18.375 -13.347656 18.9375 -9.832031 20.0625 -7.53125 C 21.195312 -5.238281 23.164062 -4.09375 25.96875 -4.09375 C 27.695312 -4.09375 29.410156 -4.625 31.109375 -5.6875 C 32.804688 -6.757812 34.285156 -8.222656 35.546875 -10.078125 L 38.25 -7.890625 C 35.65625 -4.023438 33.09375 -1.476562 30.5625 -0.25 C 28.03125 0.976562 25.566406 1.59375 23.171875 1.59375 Z M 23.171875 1.59375 "/></g></g></g><g fill="#520d0d" fill-opacity="1"><g transform="translate(367.52659, 441.495211)"><g/></g></g><g fill="#520d0d" fill-opacity="1"><g transform="translate(397.28469, 441.495211)"><g><path d="M 28.859375 1.59375 C 25.734375 1.59375 22.585938 1.160156 19.421875 0.296875 C 16.253906 -0.566406 13.472656 -1.832031 11.078125 -3.5 L 11.578125 0.796875 L 6.390625 0.796875 L 5.796875 -20.46875 L 9.6875 -20.46875 C 10.019531 -14.75 11.984375 -10.335938 15.578125 -7.234375 C 19.171875 -4.140625 23.734375 -2.59375 29.265625 -2.59375 C 33.316406 -2.59375 36.722656 -3.707031 39.484375 -5.9375 C 42.253906 -8.164062 43.640625 -11.210938 43.640625 -15.078125 C 43.640625 -17.941406 42.851562 -20.390625 41.28125 -22.421875 C 39.71875 -24.453125 37.789062 -26.148438 35.5 -27.515625 C 33.207031 -28.878906 30.09375 -30.457031 26.15625 -32.25 C 21.695312 -34.382812 18.148438 -36.25 15.515625 -37.84375 C 12.890625 -39.445312 10.644531 -41.5625 8.78125 -44.1875 C 6.914062 -46.8125 5.984375 -50.054688 5.984375 -53.921875 C 5.984375 -56.585938 6.597656 -59.25 7.828125 -61.90625 C 9.066406 -64.570312 11.203125 -66.835938 14.234375 -68.703125 C 17.265625 -70.566406 21.273438 -71.5 26.265625 -71.5 C 29.253906 -71.5 32.265625 -71.113281 35.296875 -70.34375 C 38.328125 -69.582031 41.109375 -68.269531 43.640625 -66.40625 L 43.234375 -70.703125 L 48.328125 -70.703125 L 48.328125 -48.734375 L 44.734375 -48.734375 C 44.398438 -53.992188 42.71875 -58.4375 39.6875 -62.0625 C 36.664062 -65.6875 32.425781 -67.5 26.96875 -67.5 C 22.96875 -67.5 19.835938 -66.382812 17.578125 -64.15625 C 15.316406 -61.925781 14.1875 -59.148438 14.1875 -55.828125 C 14.1875 -53.160156 14.953125 -50.859375 16.484375 -48.921875 C 18.015625 -46.992188 19.875 -45.394531 22.0625 -44.125 C 24.257812 -42.863281 27.359375 -41.300781 31.359375 -39.4375 C 35.878906 -37.375 39.519531 -35.507812 42.28125 -33.84375 C 45.050781 -32.1875 47.398438 -30.007812 49.328125 -27.3125 C 51.253906 -24.613281 52.21875 -21.300781 52.21875 -17.375 C 52.21875 -13.644531 51.300781 -10.347656 49.46875 -7.484375 C 47.644531 -4.628906 44.96875 -2.398438 41.4375 -0.796875 C 37.914062 0.796875 33.722656 1.59375 28.859375 1.59375 Z M 28.859375 1.59375 "/></g></g></g><g fill="#520d0d" fill-opacity="1"><g transform="translate(457.399637, 441.495211)"><g><path d="M 3.390625 -3 C 5.328125 -3 6.726562 -3.476562 7.59375 -4.4375 C 8.457031 -5.40625 8.972656 -6.65625 9.140625 -8.1875 C 9.304688 -9.71875 9.390625 -12.046875 9.390625 -15.171875 L 9.390625 -62.40625 C 9.390625 -64.9375 9.488281 -67.101562 9.6875 -68.90625 L 2.59375 -68.5 L 2.59375 -72.703125 C 6.59375 -72.703125 9.441406 -72.929688 11.140625 -73.390625 C 12.835938 -73.859375 14.148438 -74.523438 15.078125 -75.390625 L 17.96875 -75.390625 L 17.96875 -44.9375 C 20.300781 -46.863281 22.929688 -48.441406 25.859375 -49.671875 C 28.785156 -50.910156 31.617188 -51.53125 34.359375 -51.53125 C 40.078125 -51.53125 44.234375 -49.734375 46.828125 -46.140625 C 49.429688 -42.546875 50.765625 -36.882812 50.828125 -29.15625 L 50.921875 -10.578125 C 50.921875 -7.585938 50.789062 -5.328125 50.53125 -3.796875 L 56.8125 -4.09375 L 56.8125 0 L 36.453125 0 L 36.453125 -3 C 38.378906 -3 39.757812 -3.476562 40.59375 -4.4375 C 41.425781 -5.40625 41.925781 -6.640625 42.09375 -8.140625 C 42.257812 -9.640625 42.34375 -11.984375 42.34375 -15.171875 L 42.34375 -29.15625 C 42.34375 -34.882812 41.441406 -39.160156 39.640625 -41.984375 C 37.847656 -44.816406 35.019531 -46.234375 31.15625 -46.234375 C 28.695312 -46.234375 26.25 -45.648438 23.8125 -44.484375 C 21.382812 -43.316406 19.4375 -41.835938 17.96875 -40.046875 L 17.96875 -10.578125 C 17.96875 -7.984375 17.800781 -5.722656 17.46875 -3.796875 L 23.765625 -4.09375 L 23.765625 0 L 3.390625 0 Z M 3.390625 -3 "/></g></g></g><g fill="#520d0d" fill-opacity="1"><g transform="translate(520.710035, 441.495211)"><g><path d="M 29.15625 1.59375 C 24.5625 1.59375 20.347656 0.515625 16.515625 -1.640625 C 12.691406 -3.804688 9.664062 -6.820312 7.4375 -10.6875 C 5.207031 -14.550781 4.09375 -18.910156 4.09375 -23.765625 C 4.09375 -28.960938 5.191406 -33.671875 7.390625 -37.890625 C 9.585938 -42.117188 12.597656 -45.445312 16.421875 -47.875 C 20.253906 -50.3125 24.5 -51.53125 29.15625 -51.53125 C 33.75 -51.53125 37.976562 -50.414062 41.84375 -48.1875 C 45.707031 -45.957031 48.753906 -42.910156 50.984375 -39.046875 C 53.210938 -35.179688 54.328125 -30.882812 54.328125 -26.15625 C 54.328125 -21.101562 53.210938 -16.445312 50.984375 -12.1875 C 48.753906 -7.925781 45.722656 -4.5625 41.890625 -2.09375 C 38.066406 0.363281 33.820312 1.59375 29.15625 1.59375 Z M 29.953125 -2.390625 C 34.816406 -2.390625 38.394531 -4.382812 40.6875 -8.375 C 42.988281 -12.375 44.140625 -17.335938 44.140625 -23.265625 C 44.140625 -29.992188 42.890625 -35.753906 40.390625 -40.546875 C 37.890625 -45.335938 34.144531 -47.734375 29.15625 -47.734375 C 24.226562 -47.734375 20.515625 -45.703125 18.015625 -41.640625 C 15.523438 -37.578125 14.28125 -32.582031 14.28125 -26.65625 C 14.28125 -22.394531 14.863281 -18.414062 16.03125 -14.71875 C 17.195312 -11.03125 18.957031 -8.050781 21.3125 -5.78125 C 23.675781 -3.519531 26.554688 -2.390625 29.953125 -2.390625 Z M 29.953125 -2.390625 "/></g></g></g><g fill="#520d0d" fill-opacity="1"><g transform="translate(582.622449, 441.495211)"><g><path d="M 8.484375 -38.046875 C 7.222656 -41.640625 6.359375 -44.335938 5.890625 -46.140625 L 0.59375 -45.828125 L 0.59375 -49.9375 L 21.765625 -49.9375 L 21.765625 -46.9375 C 18.367188 -46.863281 16.671875 -45.332031 16.671875 -42.34375 C 16.671875 -40.8125 17.101562 -38.75 17.96875 -36.15625 L 25.765625 -12.484375 L 28.765625 -21.375 C 32.890625 -33.488281 36.082031 -43.007812 38.34375 -49.9375 L 42.4375 -49.9375 L 55.71875 -11.78125 L 65.3125 -39.4375 C 66.4375 -42.832031 67.429688 -45.066406 68.296875 -46.140625 L 62.515625 -45.828125 L 62.515625 -49.9375 L 79.890625 -49.9375 L 79.890625 -46.9375 C 77.691406 -46.800781 75.957031 -46.414062 74.6875 -45.78125 C 73.425781 -45.15625 72.460938 -44.320312 71.796875 -43.28125 C 71.128906 -42.25 70.460938 -40.835938 69.796875 -39.046875 L 55.421875 0.296875 L 51.421875 0.296875 L 38.34375 -37.453125 L 25.359375 0.296875 L 21.5625 0.296875 Z M 8.484375 -38.046875 "/></g></g></g><g fill="#520d0d" fill-opacity="1"><g transform="translate(666.104203, 441.495211)"><g><path d="M 28.765625 1.59375 C 24.234375 1.59375 20.085938 0.5625 16.328125 -1.5 C 12.566406 -3.5625 9.585938 -6.519531 7.390625 -10.375 C 5.191406 -14.238281 4.09375 -18.800781 4.09375 -24.0625 C 4.09375 -28.726562 5.207031 -33.171875 7.4375 -37.390625 C 9.664062 -41.617188 12.757812 -45.03125 16.71875 -47.625 C 20.6875 -50.226562 25.164062 -51.53125 30.15625 -51.53125 C 33.75 -51.53125 36.941406 -50.960938 39.734375 -49.828125 C 42.535156 -48.691406 44.71875 -47.191406 46.28125 -45.328125 C 47.84375 -43.472656 48.625 -41.445312 48.625 -39.25 C 48.625 -37.71875 48.191406 -36.453125 47.328125 -35.453125 C 46.460938 -34.453125 45.265625 -33.953125 43.734375 -33.953125 C 42.273438 -33.953125 41.175781 -34.429688 40.4375 -35.390625 C 39.707031 -36.359375 39.34375 -37.378906 39.34375 -38.453125 C 39.34375 -40.109375 39.84375 -41.4375 40.84375 -42.4375 C 40.113281 -44.5 38.695312 -45.910156 36.59375 -46.671875 C 34.5 -47.441406 32.421875 -47.828125 30.359375 -47.828125 C 27.296875 -47.828125 24.546875 -46.992188 22.109375 -45.328125 C 19.679688 -43.671875 17.769531 -41.242188 16.375 -38.046875 C 14.976562 -34.847656 14.28125 -31.019531 14.28125 -26.5625 C 14.28125 -22.101562 14.992188 -18.140625 16.421875 -14.671875 C 17.859375 -11.210938 19.875 -8.5 22.46875 -6.53125 C 25.0625 -4.570312 28.054688 -3.59375 31.453125 -3.59375 C 34.453125 -3.59375 37.398438 -4.40625 40.296875 -6.03125 C 43.191406 -7.664062 45.472656 -9.71875 47.140625 -12.1875 L 49.734375 -10.1875 C 47.265625 -6.320312 44.082031 -3.390625 40.1875 -1.390625 C 36.300781 0.597656 32.492188 1.59375 28.765625 1.59375 Z M 28.765625 1.59375 "/></g></g></g><g fill="#520d0d" fill-opacity="1"><g transform="translate(722.724142, 441.495211)"><g><path d="M 18.375 1.59375 C 13.507812 1.59375 9.796875 0.492188 7.234375 -1.703125 C 4.671875 -3.898438 3.390625 -6.757812 3.390625 -10.28125 C 3.390625 -14.144531 4.9375 -17.40625 8.03125 -20.0625 C 11.132812 -22.726562 15.03125 -24.707031 19.71875 -26 C 24.414062 -27.300781 29.128906 -27.921875 33.859375 -27.859375 L 33.859375 -34.046875 C 33.859375 -38.378906 33.222656 -41.757812 31.953125 -44.1875 C 30.691406 -46.613281 27.992188 -47.828125 23.859375 -47.828125 C 21.796875 -47.828125 19.832031 -47.394531 17.96875 -46.53125 C 16.101562 -45.664062 14.738281 -44.367188 13.875 -42.640625 C 14.738281 -41.703125 15.171875 -40.4375 15.171875 -38.84375 C 15.171875 -37.84375 14.804688 -36.894531 14.078125 -36 C 13.347656 -35.101562 12.285156 -34.65625 10.890625 -34.65625 C 9.484375 -34.65625 8.378906 -35.101562 7.578125 -36 C 6.785156 -36.894531 6.390625 -38.078125 6.390625 -39.546875 C 6.390625 -41.742188 7.238281 -43.753906 8.9375 -45.578125 C 10.632812 -47.410156 13 -48.859375 16.03125 -49.921875 C 19.0625 -50.992188 22.4375 -51.53125 26.15625 -51.53125 C 31.75 -51.53125 35.878906 -50.046875 38.546875 -47.078125 C 41.210938 -44.117188 42.507812 -39.441406 42.4375 -33.046875 L 42.34375 -10.578125 C 42.34375 -8.453125 42.207031 -6.191406 41.9375 -3.796875 L 49.03125 -4.1875 L 49.03125 0 L 34.75 0 C 34.550781 -1 34.316406 -2.894531 34.046875 -5.6875 C 29.191406 -0.832031 23.96875 1.59375 18.375 1.59375 Z M 20.671875 -4.09375 C 23.203125 -4.09375 25.5 -4.570312 27.5625 -5.53125 C 29.625 -6.5 31.722656 -7.984375 33.859375 -9.984375 C 33.785156 -10.984375 33.75 -12.679688 33.75 -15.078125 L 33.859375 -24.46875 C 28.390625 -24.269531 23.523438 -23.15625 19.265625 -21.125 C 15.003906 -19.09375 12.875 -15.976562 12.875 -11.78125 C 12.875 -9.320312 13.609375 -7.425781 15.078125 -6.09375 C 16.546875 -4.757812 18.410156 -4.09375 20.671875 -4.09375 Z M 20.671875 -4.09375 "/></g></g></g><g fill="#520d0d" fill-opacity="1"><g transform="translate(777.746331, 441.495211)"><g><path d="M 24.859375 1.59375 C 21.734375 1.59375 18.867188 1.175781 16.265625 0.34375 C 13.671875 -0.488281 11.445312 -1.535156 9.59375 -2.796875 L 9.984375 0.703125 L 5.796875 0.703125 L 5.1875 -16.484375 L 8.28125 -16.484375 C 8.414062 -13.742188 9.164062 -11.304688 10.53125 -9.171875 C 11.894531 -7.046875 13.691406 -5.367188 15.921875 -4.140625 C 18.148438 -2.910156 20.53125 -2.296875 23.0625 -2.296875 C 25.925781 -2.296875 28.472656 -2.976562 30.703125 -4.34375 C 32.929688 -5.707031 34.046875 -7.65625 34.046875 -10.1875 C 34.046875 -12.050781 33.492188 -13.613281 32.390625 -14.875 C 31.296875 -16.144531 29.929688 -17.191406 28.296875 -18.015625 C 26.671875 -18.847656 24.394531 -19.832031 21.46875 -20.96875 C 17.9375 -22.300781 15.101562 -23.550781 12.96875 -24.71875 C 10.84375 -25.882812 9.015625 -27.460938 7.484375 -29.453125 C 5.953125 -31.453125 5.1875 -33.984375 5.1875 -37.046875 C 5.1875 -39.242188 5.71875 -41.441406 6.78125 -43.640625 C 7.851562 -45.835938 9.65625 -47.703125 12.1875 -49.234375 C 14.71875 -50.765625 18.078125 -51.53125 22.265625 -51.53125 C 24.328125 -51.53125 26.441406 -51.195312 28.609375 -50.53125 C 30.773438 -49.863281 32.789062 -48.765625 34.65625 -47.234375 L 34.453125 -51.03125 L 38.640625 -51.03125 L 38.640625 -33.546875 L 35.453125 -33.546875 C 35.253906 -37.410156 34.070312 -40.753906 31.90625 -43.578125 C 29.738281 -46.410156 26.691406 -47.828125 22.765625 -47.828125 C 19.773438 -47.828125 17.394531 -47.078125 15.625 -45.578125 C 13.863281 -44.085938 12.984375 -42.3125 12.984375 -40.25 C 12.984375 -38.3125 13.566406 -36.675781 14.734375 -35.34375 C 15.898438 -34.019531 17.347656 -32.890625 19.078125 -31.953125 C 20.804688 -31.023438 23.132812 -29.992188 26.0625 -28.859375 C 29.519531 -27.460938 32.3125 -26.164062 34.4375 -24.96875 C 36.570312 -23.769531 38.390625 -22.1875 39.890625 -20.21875 C 41.390625 -18.257812 42.140625 -15.878906 42.140625 -13.078125 C 42.140625 -9.878906 41.320312 -7.179688 39.6875 -4.984375 C 38.0625 -2.796875 35.929688 -1.148438 33.296875 -0.046875 C 30.671875 1.046875 27.859375 1.59375 24.859375 1.59375 Z M 24.859375 1.59375 "/></g></g></g><g fill="#520d0d" fill-opacity="1"><g transform="translate(827.476045, 441.495211)"><g><path d="M 28.5625 1.59375 C 23.96875 1.59375 19.820312 0.515625 16.125 -1.640625 C 12.425781 -3.804688 9.507812 -6.898438 7.375 -10.921875 C 5.25 -14.953125 4.1875 -19.597656 4.1875 -24.859375 C 4.1875 -29.523438 5.25 -33.90625 7.375 -38 C 9.507812 -42.09375 12.488281 -45.367188 16.3125 -47.828125 C 20.144531 -50.296875 24.492188 -51.53125 29.359375 -51.53125 C 33.148438 -51.53125 36.578125 -50.695312 39.640625 -49.03125 C 42.703125 -47.363281 45.128906 -44.878906 46.921875 -41.578125 C 48.722656 -38.285156 49.625 -34.242188 49.625 -29.453125 L 14.484375 -28.859375 C 14.410156 -20.867188 15.722656 -14.644531 18.421875 -10.1875 C 21.117188 -5.726562 25.296875 -3.5 30.953125 -3.5 C 34.015625 -3.5 37.160156 -4.296875 40.390625 -5.890625 C 43.617188 -7.484375 46.097656 -9.445312 47.828125 -11.78125 L 50.234375 -9.78125 C 47.703125 -5.925781 44.421875 -3.066406 40.390625 -1.203125 C 36.367188 0.660156 32.425781 1.59375 28.5625 1.59375 Z M 40.25 -33.046875 C 40.25 -37.046875 39.347656 -40.476562 37.546875 -43.34375 C 35.742188 -46.207031 33.046875 -47.640625 29.453125 -47.640625 C 21.203125 -47.640625 16.3125 -42.773438 14.78125 -33.046875 Z M 40.25 -33.046875 "/></g></g></g></svg>