<?xml version="1.0" encoding="utf-8"?>
<!-- Generator: Adobe Illustrator 27.9.0, SVG Export Plug-In . SVG Version: 6.00 Build 0)  -->
<svg version="1.1" id="Layer_2_00000139255965564757474410000011361536009005415841_"
	 xmlns="http://www.w3.org/2000/svg" xmlns:xlink="http://www.w3.org/1999/xlink" x="0px" y="0px" viewBox="0 0 904.2 189.4"
	 style="enable-background:new 0 0 904.2 189.4;" xml:space="preserve">
<style type="text/css">
	.st0{fill:#FFFFFF;}
</style>
<g id="Exporter">
	<g id="davidson-left-aligned-lockup">
		<path class="st0" d="M212.2,139.9c-15.8,17.2-33.6,25.8-52.8,25.8c-33.6,0-59.2-20.9-59.2-56c0-33.1,21.8-57.1,50.7-57.1
			c7.2,0,15.6,1.6,25.6,5.4l29.6,31.1h0.1V50c-24-4.1-47.7-6.5-59.1-6.5c-45.7,0-78,34.8-78,74c0,43.6,34.4,71.9,77.8,71.9
			c34.3,0,57.2-18.3,65.4-49.3L212.2,139.9L212.2,139.9z M52.4,132.9V11h26c29.4,0,48.3,17.6,48.3,60.9s-18.9,61-48.3,61L52.4,132.9
			L52.4,132.9z M161.7,72c0-44.5-35.1-70.9-85.6-70.9H0v0.1L18.4,17v110L0,142.8v0.1h76.1C126.6,142.9,161.6,116.5,161.7,72
			L161.7,72z"/>
		<g>
			<path d="M306.4,1.2h-39.3l8.8,8.4v63.3l-8.8,8.4h39.3c28,0,46.8-14.9,46.8-40.1S334.4,1.2,306.4,1.2z M307.2,72.5h-8.8V10h8.8
				c15.3,0,22,6.7,22,31.3S322.5,72.5,307.2,72.5L307.2,72.5L307.2,72.5z"/>
			<path d="M717.3,57c0-11.5-6.8-20.3-24.5-25.6l-12.7-3.9c-8.3-2.5-10.6-5.3-10.6-9.5c0-5.2,3.4-9.1,13.8-9.1
				c4.7,0,9.1,0.6,14.8,2.4L713,28.7V4c-12-2.8-21.1-4-27.6-4c-22.5,0-33.6,11.9-33.6,25.5c0,11.2,7.1,20,23.7,25l12.1,3.7
				c8.7,2.6,11.6,5.6,11.6,9.8c0,6.2-5.8,9.6-17.1,9.6c-4.8,0-9.4-0.9-14.1-2.8l-17.3-19.9v26.9c11.5,2.8,21.6,4.7,30.3,4.7
				C704.8,82.5,717.3,70.5,717.3,57L717.3,57L717.3,57z"/>
			<path d="M459.8,81.3h7.9l30.7-71.7l6.4-8.4h-26.4l9.6,8.4l-17.2,41.6L453.5,9.6l9.6-8.4h-42.8l8.8,8.4L459.8,81.3L459.8,81.3z"/>
			<path d="M555.2,81.3h39.3c28,0,46.8-14.9,46.8-40.1S622.5,1.2,594.5,1.2h-39.3l8.8,8.4v63.3L555.2,81.3L555.2,81.3L555.2,81.3z
				 M586.5,10h8.8c15.3,0,22,6.7,22,31.2s-6.7,31.2-22,31.2h-8.8V10z"/>
			<path d="M506.4,81.3h40.1l-8.8-8.4V9.6l8.8-8.4h-40.1l8.8,8.4v63.3L506.4,81.3z"/>
			<path d="M398.3,81.3h42.8l-8.8-8.4L401.6,1.2h-24.4l5.5,12.8l-25.2,58.9l-8.8,8.4h28.9l-9.6-8.4l4.2-9.9h31.7l4.1,9.9L398.3,81.3
				L398.3,81.3L398.3,81.3z M375.8,54.4L388,25.6l12.1,28.9H375.8L375.8,54.4z"/>
			<path d="M769.7,0c-23.6,0-43.3,15.8-43.3,41.3s19.7,41.3,43.3,41.3s43.3-15.8,43.3-41.3S793.4,0,769.7,0z M769.7,73.5
				c-12.1,0-19.3-6.7-19.3-32.2s7.2-32.2,19.3-32.2S789,15.8,789,41.3S781.8,73.5,769.7,73.5z"/>
			<path d="M874.2,1.2L885,12.8v31.8L844.5,1.2h-30.8L826.5,15v54.8l-8.8,11.6h30l-10.8-11.6V26.1l51.4,55.2h7.1V12.8l8.8-11.6
				L874.2,1.2L874.2,1.2z"/>
			<path d="M783.6,116.9v62.5l-9.2,8.8h73.7v-30.3l-17.9,20.7h-23.3v-26h11.4l12.2,10.1v-29.8l-12.2,10.1h-11.4v-25.2h24.7
				l16.6,19.1V108h-73.7L783.6,116.9L783.6,116.9z"/>
			<path d="M741.8,155.9V178c-2.3,0.6-4.6,0.9-6.7,0.9c-15,0-26.3-9.6-26.3-32.9c0-17.6,8.7-29.4,22.6-29.4c3.7,0,8.2,0.7,13.4,2.3
				l15.9,18.2v-25.9c-12.3-3.1-22.3-4.4-31.6-4.4c-24.7,0-45,18.1-45,41.3c0,25.5,19.3,41.2,40.9,41.2c11.5,0,20.2-2.1,29.2-8.1
				l9.2,7.7h0.1v-33.1l9.2-8.4h-40L741.8,155.9L741.8,155.9L741.8,155.9z"/>
			<path d="M320.6,173.7c-15.9,0-26.4-11-26.4-30.1c0-17.6,9.2-27,22.8-27c3.1,0,7,0.7,11.7,2.2l16,18.3v-25.9
				c-12.5-3.1-22.5-4.4-30.7-4.4c-24.3,0-44.7,18.1-44.7,41.8c0,25.4,19.7,40.7,41.5,40.7c19.1,0,34.2-12.3,38-30.1
				C341.7,167.9,331.9,173.7,320.6,173.7L320.6,173.7z"/>
			<path d="M398.5,106.8c-23.8,0-44.5,15.8-44.5,41.2s20.7,41.3,44.5,41.3s44.5-15.8,44.5-41.3S422.3,106.8,398.5,106.8z
				 M398.5,179.5c-12.1,0-19.7-6.7-19.7-31.4s7.6-31.4,19.7-31.4s19.7,6.7,19.7,31.4S410.6,179.5,398.5,179.5z"/>
			<path d="M477.2,178.5v-61.7l9.2-8.8h-41.6l9.2,8.8v62.5l-9.2,8.8h70.9v-30.3l-17.9,20.7L477.2,178.5L477.2,178.5z"/>
			<path d="M555,178.5v-61.7l9.2-8.8h-41.7l9.2,8.8v62.5l-9.2,8.8h70.9v-30.3l-17.9,20.7L555,178.5L555,178.5z"/>
			<path d="M609.4,116.9v62.5l-9.2,8.8h73.7v-30.3l-18,20.7h-23.3v-26H644l12.2,10.1v-29.8L644,142.9h-11.4v-25.2h24.7l16.6,19.1
				V108h-73.7L609.4,116.9L609.4,116.9z"/>
		</g>
	</g>
</g>
</svg>
