<?xml version="1.0" encoding="UTF-8"?>
<svg id="Layer_1" data-name="Layer 1" xmlns="http://www.w3.org/2000/svg" version="1.1" viewBox="0 0 381.1 168.4">
  <defs>
    <style>
      .cls-1 {
        fill: #fff;
        stroke-width: 0px;
      }
    </style>
  </defs>
  <g id="davidson-standard-stacked-TEMPLATE-black">
    <path class="cls-1" d="M135.1,98c-8.4,9.2-18,13.8-28.3,13.8-18,0-31.7-11.2-31.7-30s11.7-30.6,27.2-30.6,8.3.9,13.7,2.9l15.8,16.6h0v-20.9c-12.8-2.2-25.5-3.5-31.6-3.5-24.5,0-41.8,18.6-41.8,39.6s18.4,38.5,41.7,38.5,30.6-9.8,35-26.4h0ZM49.6,94.3V29h13.9c15.7,0,25.8,9.4,25.8,32.6s-10.1,32.6-25.8,32.6h-13.9ZM108,61.7c0-23.8-18.8-37.9-45.8-37.9H21.5c0,0,9.9,8.5,9.9,8.5v58.9l-9.9,8.4h0c0,0,40.7,0,40.7,0,27.1,0,45.8-14.1,45.8-37.9Z"/>
    <g>
      <path class="cls-1" d="M164.8,98.3v-2.4h16.2v2.4h-5.5v32.2h12.9l7.6-9-2.2,11.4h-28.9v-2.4h5.5v-32.2h-5.5Z"/>
      <path class="cls-1" d="M200.9,114.4l-4.7-3,9.4-3.6v23h3.9v2.1h-12.4v-2.1h3.9v-16.4ZM199.5,98.4c0-1.8,1.4-3.2,3.3-3.2s3.3,1.4,3.3,3.2-1.4,3.2-3.3,3.2-3.3-1.4-3.3-3.2Z"/>
      <path class="cls-1" d="M208.5,94.8l10-3.6v20h1c1.9-1.5,4.4-2.9,7.2-2.9,6.3,0,10.5,4.9,10.5,11.8s-6.6,13.4-14.1,13.4-7.1-.9-9.3-2.3v-33.9l-5.2-2.5ZM218.4,128.4c.9,1.7,2.9,2.8,5.5,2.8,4.3,0,8.1-2.9,8.1-9.8s-3.6-10-8.9-10-4.1,1.1-4.7,2.2v14.8Z"/>
      <path class="cls-1" d="M238.4,111.4l9.4-3.6v4.7h1.1c2.5-2.2,4.4-4.2,6.7-4.2s3.1,1.2,3.1,2.9-1.1,2.7-2.5,3.3l-4.2-2.5-4.2,3.2v15.6h5.5v2.1h-14v-2.1h3.9v-16.4l-4.7-3Z"/>
      <path class="cls-1" d="M265.3,111.7v4.9h-5.8c1.9-4.6,7.2-8.4,12-8.4s5.4,2.1,5.4,6v12.4c0,2.1,1,3,2.5,3s2-.4,2.7-1.2c0,2.9-2.5,4.9-5.1,4.9s-3.9-1.4-4.4-3.3h-1c-1.4,1.3-3.7,3.2-6.6,3.2s-5.1-1.9-5.1-5,3.3-5.5,6.5-6.7l6.1-2.4v-3.2c0-2.8-1.5-5.8-7.2-4.2ZM269.4,122.1c-3.2,1.3-4.9,2.5-4.9,4.9s1.4,2.9,3.4,2.9,3.3-.8,4.6-2v-7.1l-3.1,1.3Z"/>
      <path class="cls-1" d="M281.6,111.4l9.4-3.6v4.7h1.1c2.5-2.2,4.4-4.2,6.7-4.2s3.1,1.2,3.1,2.9-1.1,2.7-2.5,3.3l-4.2-2.5-4.2,3.2v15.6h5.5v2.1h-14v-2.1h3.9v-16.4l-4.7-3Z"/>
      <path class="cls-1" d="M318.6,110.9v-2.1h9.5v2.1h-2.5l-13.4,32.9c-1,2.5-2.4,4.6-5.2,4.6s-3.5-1.6-3.5-3.3.4-1.8,1.2-2.6l4.9,1.8,4-9.9-8.8-23.5h-2.5v-2.1h11.9v2.1h-4.3l6.2,18,7-18h-4.4Z"/>
    </g>
    <g>
      <path class="cls-1" d="M178.4,23.7h-11.8l2.7,2.5v19l-2.7,2.5h11.8c8.4,0,14.1-4.5,14.1-12s-5.6-12-14.1-12ZM178.6,45.2h-2.7v-18.8h2.7c4.6,0,6.6,2,6.6,9.4s-2,9.4-6.6,9.4h0Z"/>
      <path class="cls-1" d="M302,40.5c0-3.4-2-6.1-7.4-7.7l-3.8-1.2c-2.5-.7-3.2-1.6-3.2-2.9s1-2.7,4.1-2.7,2.7.2,4.5.7l4.5,5.2v-7.4c-3.6-.8-6.3-1.2-8.3-1.2-6.8,0-10.1,3.6-10.1,7.7s2.1,6,7.1,7.5l3.6,1.1c2.6.8,3.5,1.7,3.5,2.9,0,1.9-1.7,2.9-5.1,2.9s-2.8-.3-4.3-.8l-5.2-6v8.1c3.4.8,6.5,1.4,9.1,1.4,7.2,0,10.9-3.6,10.9-7.7h0Z"/>
      <path class="cls-1" d="M224.5,47.8h2.4l9.2-21.6,1.9-2.5h-8l2.9,2.5-5.2,12.5-5.2-12.5,2.9-2.5h-12.9l2.7,2.5,9.2,21.6Z"/>
      <path class="cls-1" d="M253.2,47.8h11.8c8.4,0,14.1-4.5,14.1-12s-5.6-12-14.1-12h-11.8l2.7,2.5v19l-2.7,2.5h0ZM262.6,26.4h2.7c4.6,0,6.6,2,6.6,9.4s-2,9.4-6.6,9.4h-2.7v-18.8Z"/>
      <path class="cls-1" d="M238.5,47.8h12l-2.7-2.5v-19l2.7-2.5h-12l2.7,2.5v19l-2.7,2.5Z"/>
      <path class="cls-1" d="M206,47.8h12.9l-2.7-2.5-9.2-21.6h-7.3l1.7,3.9-7.6,17.7-2.7,2.5h8.7l-2.9-2.5,1.3-3h9.5l1.2,3-2.9,2.5h0ZM199.3,39.7l3.7-8.7,3.6,8.7h-7.3Z"/>
      <path class="cls-1" d="M317.7,23.4c-7.1,0-13,4.7-13,12.4s5.9,12.4,13,12.4,13-4.7,13-12.4-5.9-12.4-13-12.4ZM317.7,45.5c-3.6,0-5.8-2-5.8-9.7s2.2-9.7,5.8-9.7,5.8,2,5.8,9.7-2.2,9.7-5.8,9.7Z"/>
      <path class="cls-1" d="M349.1,23.7l3.3,3.5v9.6l-12.2-13.1h-9.3l3.9,4.1v16.5l-2.7,3.5h9l-3.3-3.5v-13.1l15.5,16.6h2.1v-20.6l2.7-3.5h-9Z"/>
      <path class="cls-1" d="M321.9,58.5v18.8l-2.8,2.7h22.2v-9.1l-5.4,6.2h-7v-7.8h3.4l3.7,3v-9l-3.7,3h-3.4v-7.6h7.4l5,5.7v-8.6h-22.2l2.8,2.6Z"/>
      <path class="cls-1" d="M309.3,70.2v6.7c-.7.2-1.4.3-2,.3-4.5,0-7.9-2.9-7.9-9.9s2.6-8.8,6.8-8.8,2.5.2,4,.7l4.8,5.5v-7.8c-3.7-.9-6.7-1.3-9.5-1.3-7.4,0-13.5,5.4-13.5,12.4s5.8,12.4,12.3,12.4,6.1-.6,8.8-2.4l2.8,2.3h0v-9.9l2.8-2.5h-12l2.8,2.5h0Z"/>
      <path class="cls-1" d="M182.7,75.6c-4.8,0-7.9-3.3-7.9-9.1s2.8-8.1,6.9-8.1,2.1.2,3.5.7l4.8,5.5v-7.8c-3.8-.9-6.8-1.3-9.2-1.3-7.3,0-13.4,5.4-13.4,12.6s5.9,12.2,12.5,12.2,10.3-3.7,11.4-9.1c-2.2,2.6-5.2,4.4-8.5,4.4Z"/>
      <path class="cls-1" d="M206.1,55.5c-7.2,0-13.4,4.7-13.4,12.4s6.2,12.4,13.4,12.4,13.4-4.7,13.4-12.4-6.2-12.4-13.4-12.4ZM206.1,77.3c-3.6,0-5.9-2-5.9-9.4s2.3-9.4,5.9-9.4,5.9,2,5.9,9.4-2.3,9.4-5.9,9.4Z"/>
      <path class="cls-1" d="M229.8,77v-18.5l2.8-2.6h-12.5l2.8,2.6v18.8l-2.8,2.7h21.3v-9.1l-5.4,6.2h-6.2Z"/>
      <path class="cls-1" d="M253.1,77v-18.5l2.8-2.6h-12.5l2.8,2.6v18.8l-2.8,2.7h21.3v-9.1l-5.4,6.2h-6.2Z"/>
      <path class="cls-1" d="M269.5,58.5v18.8l-2.8,2.7h22.2v-9.1l-5.4,6.2h-7v-7.8h3.4l3.7,3v-9l-3.7,3h-3.4v-7.6h7.4l5,5.7v-8.6h-22.2l2.8,2.6Z"/>
    </g>
  </g>
</svg>